<svg t="1704891801532" class="icon" viewBox="0 0 1024 1024" version="1.1" xmlns="http://www.w3.org/2000/svg" p-id="884" width="200" height="200"><path d="M371.044 348.321c22.973 0 36.607 48.99 39.31 71.347 1.418 11.993 11.604 20.823 23.41 20.823 0.908 0 1.842-0.046 2.774-0.153 12.949-1.522 22.216-13.246 20.705-26.194-4.911-41.978-28.602-113.041-86.198-113.041-57.995 0-80.175 71.394-84.13 113.585-1.229 12.973 8.309 24.494 21.295 25.71 12.973 1.216 24.481-8.311 25.711-21.297 2.087-22.181 14.331-70.78 37.123-70.78zM514.912 755.809c155.052 0 167.931-112.325 168.06-113.478 1.266-12.857-8.052-24.202-20.896-25.632a23.73 23.73 0 0 0-26.062 20.706c-0.364 2.9-10.154 71.171-121.103 71.171-110.483 0-120.646-67.676-121.083-71.123-1.405-12.859-12.949-22.24-25.793-20.931-12.973 1.285-22.453 12.831-21.177 25.816 0.106 1.121 12.985 113.471 168.054 113.471zM730.795 419.644c1.416 12.006 11.604 20.847 23.407 20.847 0.918 0 1.841-0.046 2.773-0.165 12.96-1.522 22.227-13.246 20.709-26.194-4.914-41.978-28.604-113.043-86.213-113.043-57.986 0-80.165 71.396-84.128 113.584-1.216 12.975 8.309 24.495 21.295 25.71 13.146 1.159 24.49-8.311 25.72-21.294 2.091-22.181 14.322-70.782 37.125-70.782 22.973 0.001 36.607 48.979 39.312 71.337z" fill="" p-id="885"></path><path d="M208.768 707.111c-46.429-62.225-73.947-139.261-73.947-222.602 0-206.074 168.123-373.724 374.789-373.724 206.667 0 374.789 167.649 374.789 373.724 0 83.341-27.517 160.377-73.946 222.602 17.528 0.875 34.091 5.242 49.048 12.489 45.511-67.169 72.104-148.086 72.104-235.091 0-232.103-189.31-420.942-422.006-420.942-232.693 0-421.995 188.829-421.995 420.931 0 87.002 26.596 167.925 72.104 235.094 14.967-7.238 31.528-11.619 49.06-12.481z" fill="" p-id="886"></path><path d="M804.074 707.076c-64.936 0-118.656 48.679-126.517 111.374 0.022-0.014 0.048-0.021 0.07-0.035-0.651 5.22-1.1 10.51-1.1 15.915 0-5.379 0.377-10.673 1.029-15.88-50.557 25.396-107.585 39.785-167.96 39.785-60.365 0-117.391-14.389-167.947-39.785 0.654 5.207 1.029 10.501 1.029 15.88 0-5.396-0.448-10.683-1.099-15.915 0.022 0.014 0.046 0.021 0.069 0.035-7.863-62.695-61.582-111.374-126.509-111.374-70.32 0-127.539 57.086-127.539 127.254 0 70.17 57.218 127.255 127.539 127.255 58.323 0 107.6-39.288 122.728-92.72-0.016-0.005-0.03-0.014-0.042-0.019a130.023 130.023 0 0 0 4.454-24.921 126.446 126.446 0 0 1-4.411 24.939c52.509 23.434 110.595 36.575 171.741 36.575 61.144 0 119.224-13.137 171.733-36.571a126.067 126.067 0 0 1-4.416-24.975c0.669 8.579 2.206 16.92 4.465 24.952-0.017 0.009-0.035 0.014-0.049 0.022 15.126 53.433 64.404 92.716 122.731 92.716 70.32 0 127.539-57.085 127.539-127.255 0.001-70.166-57.217-127.252-127.538-127.252z m-588.933 207.29c-44.292 0-80.32-35.92-80.32-80.044 0-44.13 36.028-80.041 80.32-80.041 44.292 0 80.319 35.924 80.319 80.049 0 44.126-36.04 80.036-80.319 80.036z m588.933 0c-44.289 0-80.329-35.92-80.329-80.044 0-44.13 36.04-80.041 80.329-80.041 44.295 0 80.324 35.924 80.324 80.049 0 44.126-36.029 80.036-80.324 80.036z" fill="" p-id="887"></path></svg>